<svg id="Layer_1" data-name="Layer 1" xmlns="http://www.w3.org/2000/svg" viewBox="0 0 512 374.26">
    <defs>
        <style>.cls-1{fill:black;}</style>
    </defs>
    <title>Fast delivery</title>
    <path class="cls-1"
          d="M565.62,488.35l.11-.15c.12-.18.23-.37.34-.56l0,0c.11-.21.22-.42.31-.64a1.46,1.46,0,0,0,.07-.19c.06-.16.12-.31.17-.47s.06-.22.09-.32.07-.25.1-.38l.06-.34c0-.1,0-.2.05-.3.32-2.55,6.19-49.67,8.81-80.14a.28.28,0,0,0,0-.09C576.51,396,577,388.55,577,384a97.61,97.61,0,0,0-97.5-97.5H447.26L457,175c0-.2,0-.4,0-.6v0h0a7.49,7.49,0,0,0-4.52-6.87l-.07,0a5.17,5.17,0,0,0-.51-.18l-.2-.07-.43-.11L451,167l-.39-.06-.37,0h-.06c-.13,0-.26,0-.39,0H296a7.5,7.5,0,0,0,0,15H441.32L426.4,353.24a.08.08,0,0,0,0,0l-3.76,43.24H162l4.36-45H216a7.5,7.5,0,0,0,0-15H167.83l9.21-95h79a7.5,7.5,0,0,0,0-15H178.49l4.33-44.66H266a7.5,7.5,0,0,0,0-15H176a7.51,7.51,0,0,0-7.32,5.92.19.19,0,0,1,0,.07c0,.19-.06.38-.09.57s0,.12,0,.18,0,0,0,0l-5.12,52.88H72.5a7.5,7.5,0,1,0,0,15H162l-9.2,95H126a7.5,7.5,0,0,0,0,15h25.31l-5,51.72v0l-7.75,80v.05c0,.11,0,.21,0,.31s0,.28,0,.42v0c0,.19,0,.38,0,.57a1.09,1.09,0,0,1,0,.18c0,.2.06.39.09.58l0,.17c0,.14.07.28.1.42s.05.2.08.3l0,.08a7.47,7.47,0,0,0,1.78,2.93l0,.05.25.23a7.55,7.55,0,0,0,1.74,1.19l.4.19.12.05.58.2.05,0,.67.17h.09c.22,0,.44.08.66.1h0a6,6,0,0,0,.73,0h33.4a57.09,57.09,0,0,0,113.19,0H412.9a57.09,57.09,0,0,0,113.19,0h33.42c.25,0,.49,0,.74,0l.13,0,.57-.09.25-.05.44-.12.28-.09.37-.14.31-.13a3.18,3.18,0,0,0,.32-.16l.3-.16.31-.18.27-.19a3.3,3.3,0,0,0,.3-.22l.25-.2c.1-.08.2-.18.3-.27l.2-.2q.15-.15.3-.33l.16-.18C565.42,488.63,565.52,488.49,565.62,488.35ZM562,384c0,2.81-.21,6.89-.57,11.81-11.14-2.27-18-10.11-26.31-19.65-10.39-11.94-23.07-26.5-47.38-29.22l3.88-44.54A82.62,82.62,0,0,1,562,384Zm-85.36-82.5-3.92,45H442l3.92-45Zm-47.14,110h0a6.28,6.28,0,0,0,.75,0l.13,0,.59-.08.24-.06.45-.12.29-.1.37-.14.31-.14.33-.15a3.07,3.07,0,0,1,.31-.17l.3-.19.28-.19.29-.22.26-.21.28-.26.22-.22.27-.29.19-.24a3.81,3.81,0,0,0,.24-.32,2.2,2.2,0,0,0,.17-.25,3.13,3.13,0,0,0,.21-.34,1.82,1.82,0,0,0,.15-.27c.07-.12.12-.24.18-.36s.09-.19.13-.29.09-.24.13-.36.07-.22.11-.33l.09-.35c0-.12.06-.24.08-.36s0-.23.06-.35,0-.25.05-.38a.11.11,0,0,1,0-.05l3.75-43.15H479.5c23,0,33.34,11.91,44.31,24.51,9.05,10.4,19.16,22,36.34,24.84-2.18,23.07-5.71,52.69-7.29,65.65H526.1a57.09,57.09,0,0,0-113.2,0H292.6a57.09,57.09,0,0,0-113.19,0H154.27l6.3-65ZM236,526.13a42.11,42.11,0,1,1,42.1-42.1A42.15,42.15,0,0,1,236,526.13Zm233.49,0A42.11,42.11,0,1,1,511.6,484,42.15,42.15,0,0,1,469.5,526.13Z"
          transform="translate(-65 -166.87)"/>
    <path class="cls-1"
          d="M236,456.52a27.5,27.5,0,1,0,27.5,27.5A27.54,27.54,0,0,0,236,456.52Zm0,40a12.5,12.5,0,1,1,12.5-12.5A12.5,12.5,0,0,1,236,496.52Z"
          transform="translate(-65 -166.87)"/>
    <path class="cls-1"
          d="M469.5,456.52A27.5,27.5,0,1,0,497,484,27.53,27.53,0,0,0,469.5,456.52Zm0,40A12.5,12.5,0,1,1,482,484,12.5,12.5,0,0,1,469.5,496.52Z"
          transform="translate(-65 -166.87)"/>
    <path class="cls-1" d="M143.5,294a7.5,7.5,0,0,0-7.5-7.5H99.33a7.5,7.5,0,1,0,0,15H136A7.5,7.5,0,0,0,143.5,294Z"
          transform="translate(-65 -166.87)"/>
</svg>